<svg width="580" height="260" viewBox="0 0 580 260" fill="none" xmlns="http://www.w3.org/2000/svg" role="img" aria-label="Artificial intelligence cyberpunk HUD card"><defs><linearGradient id="g" x1="0" y1="0" x2="580" y2="260"><stop stop-color="#111827"/><stop offset="1" stop-color="#05070B"/></linearGradient><filter id="glow"><feGaussianBlur stdDeviation="3" result="b"/><feMerge><feMergeNode in="b"/><feMergeNode in="SourceGraphic"/></feMerge></filter></defs><rect x="2" y="2" width="576" height="256" rx="18" fill="url(#g)" stroke="#7C3AED" stroke-opacity=".78"/><circle cx="98" cy="130" r="54" stroke="#FF4D9A" stroke-width="4" filter="url(#glow)"/><circle cx="98" cy="130" r="13" fill="#FF4D9A"/><circle cx="56" cy="94" r="7" fill="#7C3AED"/><circle cx="142" cy="96" r="7" fill="#7C3AED"/><circle cx="52" cy="168" r="7" fill="#7C3AED"/><circle cx="146" cy="166" r="7" fill="#7C3AED"/><path d="M98 130L56 94M98 130l86-34M98 130l-46 38M98 130l48 36M56 94l90 72M142 96L52 168" stroke="#E5E7EB" stroke-opacity=".52" stroke-width="2"/><text x="198" y="104" fill="#E5E7EB" font-family="Consolas,monospace" font-size="28" font-weight="800">AI SYSTEMS</text><text x="200" y="139" fill="#FF4D9A" font-family="Consolas,monospace" font-size="16" letter-spacing="2">INTELLIGENT TOOLING</text><text x="200" y="176" fill="#E5E7EB" opacity=".82" font-family="Consolas,monospace" font-size="18">Python / Automation / Creation</text><path d="M36 36h508v188H36z" stroke="#E5E7EB" stroke-opacity=".08"/></svg>
