<svg width="1180" height="260" viewBox="0 0 1180 260" fill="none" xmlns="http://www.w3.org/2000/svg" role="img" aria-label="Fashion designer cyberpunk HUD card"><defs><linearGradient id="g" x1="0" y1="0" x2="1180" y2="260"><stop stop-color="#111827"/><stop offset=".45" stop-color="#05070B"/><stop offset="1" stop-color="#111827"/></linearGradient><filter id="glow"><feGaussianBlur stdDeviation="4" result="b"/><feMerge><feMergeNode in="b"/><feMergeNode in="SourceGraphic"/></feMerge></filter></defs><rect x="2" y="2" width="1176" height="256" rx="18" fill="url(#g)" stroke="#FF4D9A" stroke-opacity=".75"/><path d="M132 48c38 20 58 49 60 87-24 10-42 28-54 74h-72c-12-46-30-64-54-74 2-38 22-67 60-87 12 18 48 18 60 0Z" stroke="#FF4D9A" stroke-width="4" filter="url(#glow)"/><path d="M86 70c10 18 22 28 46 0M66 214h72M92 214v-68" stroke="#7C3AED" stroke-width="4" stroke-linecap="round"/><text x="250" y="104" fill="#E5E7EB" font-family="Consolas,monospace" font-size="38" font-weight="800">FASHION DESIGNER</text><text x="252" y="141" fill="#FF4D9A" font-family="Consolas,monospace" font-size="17" letter-spacing="3">VISUAL IDENTITY / CREATIVE DIRECTION / DIGITAL STYLE</text><text x="252" y="184" fill="#E5E7EB" opacity=".82" font-family="Consolas,monospace" font-size="20">Aesthetic systems built with the same precision as software systems.</text><path d="M994 54h120M932 92h182M972 130h142M912 168h202M1014 206h100" stroke="#E5E7EB" stroke-opacity=".2"/></svg>
